<svg xmlns="http://www.w3.org/2000/svg" viewBox="0 0 32 32" role="img" aria-label="LocalGovy">
  <rect width="32" height="32" fill="#123B2C"/>
  <g fill="#F6F3EC">
    <!-- l -->
    <rect x="2.5" y="2.5" width="7" height="27" rx="1.6"/>
    <!-- g: thick circular bowl -->
    <path d="M21.5 3.2c-6.1 0-10.8 4.7-10.8 10.8 0 6.1 4.7 10.8 10.8 10.8 2.4 0 4.6-.7 6.3-2.1v-6.2h-8.2v4.8h3.6c-.9.7-2.1 1.1-3.5 1.1-3.5 0-6-2.6-6-6.1s2.5-6.1 6-6.1c1.7 0 3.2.6 4.2 1.6V5.1c-1.5-1.2-3.6-1.9-6.4-1.9z"/>
  </g>
</svg>
